<svg version="1.2" xmlns="http://www.w3.org/2000/svg" viewBox="0 0 2000 2000" width="1000" height="1000">
	<title>DEVKOM(1)-ai</title>
	<style>
		.s0 { fill: #202124 } 
		.s1 { fill: #6cf490 } 
		.s2 { fill: #ffffff } 
		.s3 { fill: #45f378 } 
	</style>
	<g id="Layer 1">
		<g id="&lt;Group&gt;">
			<path id="&lt;Path&gt;" class="s0" d="m2000 2000h-2000v-2000h2000z"/>
		</g>
		<g id="&lt;Group&gt;">
			<g id="&lt;Group&gt;">
				<g id="&lt;Group&gt;">
					<path id="&lt;Compound Path&gt;" fill-rule="evenodd" class="s1" d="m697.1 1041.4h-11.9v27.8h-11.6v13.8h-11.6v13.8h-81.7v-193.6h81.7v13.8h11.6v13.8h11.6v27.6h11.9zm-23.5 0v-83h-11.6v-13.8h-11.6v-13.8h-46.7v138.4h46.7v-13.8h11.6v-14z"/>
				</g>
			</g>
			<g id="&lt;Group&gt;">
				<g id="&lt;Group&gt;">
					<path id="&lt;Compound Path&gt;" class="s1" d="m846.6 1096.8h-116.8v-193.6h116.8v27.6h-93.3v55.4h69.9v27.6h-69.9v55.4h93.3z"/>
				</g>
			</g>
			<g id="&lt;Group&gt;">
				<g id="&lt;Group&gt;">
					<path id="&lt;Compound Path&gt;" class="s1" d="m996.2 944.6h-11.9v41.6h-11.6v41.4h-11.6v41.6h-11.6v27.6h-23.5v-27.6h-11.6v-41.6h-11.6v-41.4h-11.9v-41.6h-11.6v-41.4h23.5v41.4h11.6v41.6h11.6v41.4h23.5v-41.4h11.6v-41.6h11.6v-41.4h23.5z"/>
				</g>
			</g>
			<g id="&lt;Group&gt;">
				<g id="&lt;Group&gt;">
					<path id="&lt;Compound Path&gt;" class="s2" d="m1028.4 1096v-192h26.8v90.5l44.1-90.5h24.9l-37.9 84.6 44 107.4h-26l-36.8-90.1-12.3 22.3v67.8z"/>
				</g>
			</g>
			<g id="&lt;Group&gt;">
				<g id="&lt;Group&gt;">
					<path id="&lt;Compound Path&gt;" fill-rule="evenodd" class="s2" d="m1209.6 1097.9q-19.5 0-31.1-7.6-11.6-7.6-16.6-21.7-5-14.1-5-33.1v-72.7q0-19 5.1-32.6 5.1-13.6 16.6-20.8 11.5-7.3 31-7.3 19.4 0 30.8 7.4 11.3 7.3 16.4 20.8 5.1 13.5 5.1 32.5v73q0 18.7-5.1 32.7-5.1 14-16.4 21.7-11.4 7.7-30.8 7.7zm0-21.1q10.6 0 16.1-4.4 5.4-4.4 7.3-12.3 1.9-8 1.9-18.6v-84.2q0-10.6-1.9-18.3-1.9-7.7-7.3-11.9-5.5-4.1-16.1-4.1-10.7 0-16.3 4.1-5.5 4.2-7.4 11.9-1.9 7.7-1.9 18.3v84.2q0 10.6 1.9 18.6 1.9 7.9 7.4 12.3 5.6 4.4 16.3 4.4z"/>
				</g>
			</g>
			<g id="&lt;Group&gt;">
				<g id="&lt;Group&gt;">
					<path id="&lt;Compound Path&gt;" class="s2" d="m1292.2 1096l3.6-192h26.3l33.9 155.7 34.1-155.7h26.1l3.5 192h-21.5l-2.2-139.4-32.4 139.4h-15.2l-32.2-139.4-2.2 139.4z"/>
				</g>
			</g>
			<g id="&lt;Group&gt;">
				<path id="&lt;Compound Path&gt;" fill-rule="evenodd" class="s2" d="m1470.8 1147.1h-941.6v-294.2h941.6zm-922.9-18.7h904.2v-256.7h-904.2z"/>
			</g>
			<g id="&lt;Group&gt;">
				<path id="&lt;Path&gt;" class="s3" d=""/>
			</g>
		</g>
		<g id="RSS">
		</g>
	</g>
</svg>